<?xml version="1.0" encoding="utf-8"?>
<!-- Generator: Adobe Illustrator 23.0.6, SVG Export Plug-In . SVG Version: 6.00 Build 0)  -->
<svg version="1.1" id="Layer_1" xmlns="http://www.w3.org/2000/svg" xmlns:xlink="http://www.w3.org/1999/xlink" x="0px" y="0px"
	 viewBox="0 0 500 275.6" style="enable-background:new 0 0 500 275.6;" xml:space="preserve">
<style type="text/css">
	.st0{fill:#FFFFFF;}
	.st1{fill:#AE0E18;}
	.st2{font-family:'KorolevCompressedW04-Heavy';}
	.st3{font-size:95px;}
</style>
<g>
	<text transform="matrix(1 0 0 1 1081.5527 517.032)" class="st0 st2" style="font-size:194.8215px;">DIRECT GOVT.COM</text>
	<g>
		<path class="st0" d="M1494.7,251.7c35.5,20.3,69.9,39.8,104.6,59.5c-31.2-0.6-63,12.1-91.7-9.4c-9-6.8-19.1-12.7-29.7-16.6
			c-19.9-7.6-25.2-20.7-24-41.4c2.1-33.2,1-66.4,0.2-99.7c-0.2-10.5,2.5-16.8,12.1-21.1c8-3.5,15.4-8.6,25.4-14.2
			c0,38.8-0.2,75.1,0,111.4C1492.1,230.4,1493.1,240.6,1494.7,251.7z"/>
		<path class="st0" d="M1445.1,172.7c0,27.3,0,53.3,0,79.2c-0.8,0.2-1.6,0.2-2.5,0.4c-11.1-19.1-22.6-38.1-33.2-57.4
			c-1.8-3.5-1.4-8.2-1.4-12.5c-0.2-21.7,0.4-43.7-0.2-65.4c-0.4-9.6,2.7-15.4,11.3-20.3c33.8-19.1,67.3-38.8,100.5-58.7
			c6.8-4.1,12.1-5.3,19.1-0.4c8,5.7,17,10,27.5,16c-29.9,17.4-57.2,36.3-86.7,50c-28.3,13.1-40.2,31.4-34.2,61.7
			C1445.5,167.4,1445.1,169.5,1445.1,172.7z"/>
		<path class="st0" d="M1649.1,70c0,7.4,0,13.3,0,22.1c-19.7-11.3-37.3-20.9-54.8-31.2c-18.9-10.9-37.7-21.7-56-33.4
			c-7.6-4.9-13.5-3.7-20.5,0.4c-31,18.3-62.3,36.1-93.5,53.9c-2.1,1-4.1,1.8-9.4,4.5c12.5-22.1,23.6-41.4,34.7-60.5
			c1.2-2.3,4.1-3.9,6.6-5.1c23.8-13.9,47.6-27.7,71.4-41.6c35.5,20.5,70.3,41.2,106,60.7C1646.1,46.6,1651.8,54.8,1649.1,70z"/>
		<path class="st0" d="M1726.2,222.8c-15.2,42.9-50.4,62.5-86.1,82.6c-12.9,7.4-22.4,8.2-35.3,0.2c-29.5-18.7-60.3-35.7-90.8-52.9
			c-9.6-5.3-15-11.7-13.3-23.4c1-8.2,0.2-16.6,0.2-27.3c28.3,16.2,54.3,31.4,80.6,46.3c4.9,2.9,10.7,4.7,14.8,8.4
			c18.7,18,35.7,11.9,54.8-0.6c24.8-16.4,51.1-30.1,79.4-43.3C1729.1,215.8,1727.9,218.9,1726.2,222.8z"/>
		<path class="st0" d="M1619.8,220.1c25.6-15.4,50.4-30.4,75.5-44.7c7.2-4.1,9.2-9.2,9.2-17.2c-0.4-38.8-0.2-77.3,2.5-116.7
			c11.3,19.5,23.6,38.3,33.2,58.7c3.5,7.4,1.2,17.6,1.2,26.7c0.2,17.6-0.6,35.3,0.4,52.7c0.6,9.8-3.7,14.2-11.5,18.7
			c-32.6,18.5-65,37.1-96.8,56.8c-9.8,6.2-17.6,6.4-26.7-0.4c-6.4-4.7-13.7-8.2-22.8-13.5C1596.6,233.4,1607.7,227.1,1619.8,220.1z"
			/>
		<path class="st0" d="M1586.8-19.2c30.1-5.5,51.3,12.1,75.5,22.6c27.5,11.9,36.5,29.5,33.6,58.7c-2.9,29.1-1,58.9-0.4,88.2
			c0.2,10.5-2.5,16.8-12.3,20.9c-8,3.5-15.4,8.6-25.2,14.2c0-40.2-1.2-78.5,0.6-116.7c0.8-18.9-5.3-28.7-21.7-36.9
			c-29.1-14.6-57-32-85.3-51.1C1562.8-19.2,1574.1-19.2,1586.8-19.2z"/>
	</g>
</g>
<g>
	<text transform="matrix(1 0 0 1 6.2496 268.412)" class="st1 st2 st3">DIRECT GOVT.COM</text>
	<g>
		<path class="st1" d="M207.7,139c17.3,9.9,34.1,19.4,51,29c-15.2-0.3-30.7,5.9-44.7-4.6c-4.4-3.3-9.3-6.2-14.5-8.1
			c-9.7-3.7-12.3-10.1-11.7-20.2c1-16.2,0.5-32.4,0.1-48.6c-0.1-5.1,1.2-8.2,5.9-10.3c3.9-1.7,7.5-4.2,12.4-6.9
			c0,18.9-0.1,36.6,0,54.3C206.4,128.6,206.9,133.6,207.7,139z"/>
		<path class="st1" d="M183.5,100.5c0,13.3,0,26,0,38.6c-0.4,0.1-0.8,0.1-1.2,0.2c-5.4-9.3-11-18.6-16.2-28c-0.9-1.7-0.7-4-0.7-6.1
			c-0.1-10.6,0.2-21.3-0.1-31.9c-0.2-4.7,1.3-7.5,5.5-9.9c16.5-9.3,32.8-18.9,49-28.6c3.3-2,5.9-2.6,9.3-0.2
			c3.9,2.8,8.3,4.9,13.4,7.8c-14.6,8.5-27.9,17.7-42.3,24.4c-13.8,6.4-19.6,15.3-16.7,30.1C183.7,97.9,183.5,98.9,183.5,100.5z"/>
		<path class="st1" d="M283,50.4c0,3.6,0,6.5,0,10.8c-9.6-5.5-18.2-10.2-26.7-15.2c-9.2-5.3-18.4-10.6-27.3-16.3
			c-3.7-2.4-6.6-1.8-10,0.2c-15.1,8.9-30.4,17.6-45.6,26.3c-1,0.5-2,0.9-4.6,2.2c6.1-10.8,11.5-20.2,16.9-29.5
			c0.6-1.1,2-1.9,3.2-2.5c11.6-6.8,23.2-13.5,34.8-20.3c17.3,10,34.3,20.1,51.7,29.6C281.5,39,284.3,43,283,50.4z"/>
		<path class="st1" d="M320.6,124.9c-7.4,20.9-24.6,30.5-42,40.3c-6.3,3.6-10.9,4-17.2,0.1c-14.4-9.1-29.4-17.4-44.3-25.8
			c-4.7-2.6-7.3-5.7-6.5-11.4c0.5-4,0.1-8.1,0.1-13.3c13.8,7.9,26.5,15.3,39.3,22.6c2.4,1.4,5.2,2.3,7.2,4.1
			c9.1,8.8,17.4,5.8,26.7-0.3c12.1-8,24.9-14.7,38.7-21.1C322,121.5,321.4,123,320.6,124.9z"/>
		<path class="st1" d="M268.7,123.6c12.5-7.5,24.6-14.8,36.8-21.8c3.5-2,4.5-4.5,4.5-8.4c-0.2-18.9-0.1-37.7,1.2-56.9
			c5.5,9.5,11.5,18.7,16.2,28.6c1.7,3.6,0.6,8.6,0.6,13c0.1,8.6-0.3,17.2,0.2,25.7c0.3,4.8-1.8,6.9-5.6,9.1
			c-15.9,9-31.7,18.1-47.2,27.7c-4.8,3-8.6,3.1-13-0.2c-3.1-2.3-6.7-4-11.1-6.6C257.4,130.1,262.8,127,268.7,123.6z"/>
		<path class="st1" d="M252.6,6.9c14.7-2.7,25,5.9,36.8,11c13.4,5.8,17.8,14.4,16.4,28.6s-0.5,28.7-0.2,43c0.1,5.1-1.2,8.2-6,10.2
			c-3.9,1.7-7.5,4.2-12.3,6.9c0-19.6-0.6-38.3,0.3-56.9c0.4-9.2-2.6-14-10.6-18c-14.2-7.1-27.8-15.6-41.6-24.9
			C240.9,6.9,246.4,6.9,252.6,6.9z"/>
	</g>
</g>
</svg>
