<?xml version="1.0" encoding="utf-8"?>
<!-- Generator: Adobe Illustrator 23.0.6, SVG Export Plug-In . SVG Version: 6.00 Build 0)  -->
<svg version="1.1" id="Layer_1" xmlns="http://www.w3.org/2000/svg" xmlns:xlink="http://www.w3.org/1999/xlink" x="0px" y="0px"
	 viewBox="0 0 500 275.6" style="enable-background:new 0 0 500 275.6;" xml:space="preserve">
<style type="text/css">
	.st0{fill:#FFFFFF;}
	.st1{font-family:'KorolevCompressedW04-Heavy';}
	.st2{font-size:95px;}
</style>
<g>
	<text transform="matrix(1 0 0 1 6.2496 268.412)" class="st0 st1 st2">DIRECT GOVT.COM</text>
	<g>
		<path class="st0" d="M207.7,139c17.3,9.9,34.1,19.4,51,29c-15.2-0.3-30.7,5.9-44.7-4.6c-4.4-3.3-9.3-6.2-14.5-8.1
			c-9.7-3.7-12.3-10.1-11.7-20.2c1-16.2,0.5-32.4,0.1-48.6c-0.1-5.1,1.2-8.2,5.9-10.3c3.9-1.7,7.5-4.2,12.4-6.9
			c0,18.9-0.1,36.6,0,54.3C206.4,128.6,206.9,133.6,207.7,139z"/>
		<path class="st0" d="M183.5,100.5c0,13.3,0,26,0,38.6c-0.4,0.1-0.8,0.1-1.2,0.2c-5.4-9.3-11-18.6-16.2-28c-0.9-1.7-0.7-4-0.7-6.1
			c-0.1-10.6,0.2-21.3-0.1-31.9c-0.2-4.7,1.3-7.5,5.5-9.9c16.5-9.3,32.8-18.9,49-28.6c3.3-2,5.9-2.6,9.3-0.2
			c3.9,2.8,8.3,4.9,13.4,7.8c-14.6,8.5-27.9,17.7-42.3,24.4c-13.8,6.4-19.6,15.3-16.7,30.1C183.7,97.9,183.5,98.9,183.5,100.5z"/>
		<path class="st0" d="M283,50.4c0,3.6,0,6.5,0,10.8c-9.6-5.5-18.2-10.2-26.7-15.2c-9.2-5.3-18.4-10.6-27.3-16.3
			c-3.7-2.4-6.6-1.8-10,0.2c-15.1,8.9-30.4,17.6-45.6,26.3c-1,0.5-2,0.9-4.6,2.2c6.1-10.8,11.5-20.2,16.9-29.5
			c0.6-1.1,2-1.9,3.2-2.5c11.6-6.8,23.2-13.5,34.8-20.3c17.3,10,34.3,20.1,51.7,29.6C281.5,39,284.3,43,283,50.4z"/>
		<path class="st0" d="M320.6,124.9c-7.4,20.9-24.6,30.5-42,40.3c-6.3,3.6-10.9,4-17.2,0.1c-14.4-9.1-29.4-17.4-44.3-25.8
			c-4.7-2.6-7.3-5.7-6.5-11.4c0.5-4,0.1-8.1,0.1-13.3c13.8,7.9,26.5,15.3,39.3,22.6c2.4,1.4,5.2,2.3,7.2,4.1
			c9.1,8.8,17.4,5.8,26.7-0.3c12.1-8,24.9-14.7,38.7-21.1C322,121.5,321.4,123,320.6,124.9z"/>
		<path class="st0" d="M268.7,123.6c12.5-7.5,24.6-14.8,36.8-21.8c3.5-2,4.5-4.5,4.5-8.4c-0.2-18.9-0.1-37.7,1.2-56.9
			c5.5,9.5,11.5,18.7,16.2,28.6c1.7,3.6,0.6,8.6,0.6,13c0.1,8.6-0.3,17.2,0.2,25.7c0.3,4.8-1.8,6.9-5.6,9.1
			c-15.9,9-31.7,18.1-47.2,27.7c-4.8,3-8.6,3.1-13-0.2c-3.1-2.3-6.7-4-11.1-6.6C257.4,130.1,262.8,127,268.7,123.6z"/>
		<path class="st0" d="M252.6,6.9c14.7-2.7,25,5.9,36.8,11c13.4,5.8,17.8,14.4,16.4,28.6s-0.5,28.7-0.2,43c0.1,5.1-1.2,8.2-6,10.2
			c-3.9,1.7-7.5,4.2-12.3,6.9c0-19.6-0.6-38.3,0.3-56.9c0.4-9.2-2.6-14-10.6-18c-14.2-7.1-27.8-15.6-41.6-24.9
			C240.9,6.9,246.4,6.9,252.6,6.9z"/>
	</g>
</g>
</svg>
